<svg width="30" height="30" fill="none" xmlns="http://www.w3.org/2000/svg"><path stroke="#01859A" d="M.5 29.5V.5h29v29z"/><path d="m8.32 22.256 2.56.544v-.56h2.72v2.992h-2.56L8.32 24v-1.744Zm3.712-1.698a3.984 3.984 0 0 1-1.392-.352 3.314 3.314 0 0 1-1.024-.736 3.11 3.11 0 0 1-.624-1.056 3.976 3.976 0 0 1-.208-1.296c0-1.056.261-1.888.784-2.496.512-.618 1.253-.928 2.224-.928.448 0 .859.064 1.232.192s.757.326 1.152.592l3.504 2.496v-3.216H20v6.688h-1.984l-4.992-3.552c-.15-.096-.31-.17-.48-.224a1.631 1.631 0 0 0-.576-.096.96.96 0 0 0-.512.128c-.15.075-.224.219-.224.432 0 .182.08.326.24.432.16.107.48.182.96.224l-.4 2.768Zm1.824-15.375h2.304v-.736h2.304v.736H20v2.816h-1.536v4.256h-1.92l-7.68-2.928V6.559L16.16 9.31V7.999h-2.304V5.183Z" fill="#01859A"/></svg>