<svg width="24" height="24" fill="none" xmlns="http://www.w3.org/2000/svg"><g clip-path="url('#clip0_0_543')"><path fill-rule="evenodd" clip-rule="evenodd" d="M23.847 11.686c-.478-.022-.956-.043-1.433-.072a30.219 30.219 0 0 1-1.79-.15 26.139 26.139 0 0 1-1.864-.302 8.409 8.409 0 0 1-2.04-.681 7.053 7.053 0 0 1-2.194-1.638 6.92 6.92 0 0 1-1.061-1.557c-.483-.974-.748-2.01-.89-3.076-.114-.857-.199-1.72-.264-2.582-.03-.41-.052-.82-.07-1.23-.087-.002-.174-.007-.263-.007-.088 0-.176.005-.264.006-.016.377-.034.752-.064 1.127-.065.85-.142 1.702-.244 2.549-.096.807-.274 1.6-.55 2.37-.43 1.192-1.108 2.222-2.095 3.053a7.407 7.407 0 0 1-2.404 1.346 12.5 12.5 0 0 1-2.745.585c-.763.08-1.527.15-2.293.206-.402.03-.807.048-1.21.065-.003.085-.007.17-.007.257 0 .084.004.168.006.252l.108.004c.907.056 1.816.104 2.721.184.964.083 1.92.23 2.853.488 1.099.303 2.1.785 2.967 1.517a6.924 6.924 0 0 1 1.927 2.626 9.12 9.12 0 0 1 .605 2.102c.099.607.186 1.215.258 1.825.053.463.08.93.105 1.394.022.389.038.777.057 1.165.09.002.179.006.269.006.093 0 .184-.004.276-.007.017-.34.03-.682.049-1.023.032-.563.064-1.127.129-1.687.075-.637.17-1.272.285-1.903.145-.799.389-1.57.758-2.3a6.906 6.906 0 0 1 1.882-2.32c.75-.597 1.592-1.017 2.511-1.303.63-.197 1.275-.338 1.93-.425a44.548 44.548 0 0 1 1.76-.206c.524-.048 1.05-.072 1.577-.098l.713-.03c.002-.088.006-.173.006-.261 0-.09-.005-.179-.007-.269Z" fill="#A6A5A5"/></g><defs><clipPath id="clip0_0_543"><path fill="#fff" d="M0 0h24v24H0z"/></clipPath></defs></svg>