<svg width="64" height="80" fill="none" xmlns="http://www.w3.org/2000/svg"><g clip-path="url('#clip0_0_118')"><path opacity=".502" fill-rule="evenodd" clip-rule="evenodd" d="M36.19 44.084H.19l18-31.224 3.049 5.29L31.514.323l10.68 18.527 3.453-5.99 18 31.223H36.19Zm-1.029-.592-3.24-5.622-3.242 5.622h6.482Zm-.287-11.944h-5.911l2.956 5.128 2.955-5.128ZM18.191 14.053 1.222 43.492H27.99l3.585-6.22-3.299-5.724h-14.76l7.38-12.802-2.705-4.693Zm3.049 5.29-6.692 11.61h13.385l-6.693-11.61ZM31.514 1.514l-9.93 17.23 7.036 12.208h6.598l6.633-11.507L31.514 1.515Zm4.393 29.438h12.577l-6.29-10.91-6.288 10.91Zm6.63-11.505 6.976 12.1h-13.95l-3.3 5.725 3.585 6.219h26.764L45.647 14.053l-3.11 5.395Zm-11.02 60.508-18-31.225h35.996L31.516 79.957Zm0-1.19 16.967-29.44H14.548l16.968 29.44Zm0-5.735L25.73 62.994h11.571l-5.786 10.037Z" fill="#fff"/></g><defs><clipPath id="clip0_0_118"><path fill="#fff" d="M0 0h63.636v80H0z"/></clipPath></defs></svg>