<svg width="58" height="48" fill="none" xmlns="http://www.w3.org/2000/svg"><path fill-rule="evenodd" clip-rule="evenodd" d="M54.813 31.753h-1.361v14.769a.703.703 0 1 1-1.407 0v-14.77h-5.32c-.462 0-.893-.13-1.264-.352v1.671c0 .39-.314.703-.703.703h-5.172a3 3 0 0 1 .374 1.412c.004 1.355-1.148 2.473-2.623 2.546l-.113.001c-1.507-.044-2.669-1.144-2.674-2.505a3.03 3.03 0 0 1 .384-1.454h-5.13a.674.674 0 0 1-.145-.015h-6.18a.702.702 0 0 1-.704-.72l.005-.176a.707.707 0 0 1 .182-.455c.283-.311.62-.788.619-1.29-.002-.572-.598-1.061-1.33-1.092h-.064c-.376 0-.733.143-.98.39a.977.977 0 0 0-.304.687c.002.506.343.984.63 1.299a.7.7 0 0 1 .183.448l.007.18a.701.701 0 0 1-.703.729h-6.27a.702.702 0 0 1-.703-.702v-5.173c-.309.164-.622.27-.937.325.16.328.253.695.253 1.081a2.465 2.465 0 0 1-2.46 2.463H5.581v14.769a.704.704 0 1 1-1.407 0v-14.77h-1.36A2.817 2.817 0 0 1 0 28.94v-7.737c0-4.266 3.47-7.736 7.737-7.736h21.757l.023.002.023-.002h7.6c.067-.006.135-.01.204-.011l.118.003.07.008H49.89c4.266 0 7.737 3.47 7.737 7.736v7.737a2.817 2.817 0 0 1-2.814 2.813ZM28.79 14.874H7.737a6.337 6.337 0 0 0-6.33 6.33v7.736c0 .775.63 1.405 1.407 1.405h8.088a1.056 1.056 0 0 0 0-2.109H4.924a.703.703 0 0 1-.703-.704v-5.625a.703.703 0 1 1 1.406 0v4.922h4.778a2.944 2.944 0 0 1-.315-1.194l-.002-.116c.044-1.503 1.144-2.667 2.505-2.67.474-.034.975.125 1.454.382v-5.129c0-.187.074-.367.207-.498.132-.132.29-.224.498-.205l6.224.017a.703.703 0 0 1 .7.724l-.007.263a.7.7 0 0 1-.181.452c-.282.312-.618.79-.616 1.293.004.572.601 1.059 1.333 1.087h.054c.706-.027 1.294-.512 1.291-1.08-.003-.505-.345-.983-.633-1.296a.706.706 0 0 1-.185-.45l-.009-.258a.701.701 0 0 1 .7-.728l5.368-.021v-2.528Zm1.279 10.188h-.367a.704.704 0 0 1-.702-.704v-5.55l-4.393.017c.227.436.346.883.349 1.322.006 1.343-1.164 2.438-2.666 2.493h-.107c-1.531-.056-2.71-1.147-2.718-2.484-.003-.451.11-.898.337-1.336l-4.35-.012v5.534a.706.706 0 0 1-.714.704l-.342-.005a.71.71 0 0 1-.449-.172c-.325-.28-.822-.614-1.345-.614h-.005c-.598.001-1.083.565-1.104 1.283l.001.06c.035.69.532 1.254 1.133 1.254h.002c.524-.003 1.015-.34 1.334-.622a.703.703 0 0 1 .45-.176l.32-.007a.692.692 0 0 1 .507.2.701.701 0 0 1 .213.502v5.604h4.349a2.843 2.843 0 0 1-.306-1.245 2.369 2.369 0 0 1 .715-1.686c.51-.51 1.229-.801 1.974-.801h.095c1.525.062 2.703 1.155 2.707 2.492 0 .418-.097.832-.293 1.24h4.306v-5.584c0-.19.077-.374.214-.506a.644.644 0 0 1 .512-.197l.295.01c.17.004.333.072.457.188.314.293.798.645 1.324.663.625.005 1.105-.524 1.155-1.24l.001-.046c-.014-.714-.488-1.288-1.085-1.31-.522-.034-1.027.302-1.358.573a.707.707 0 0 1-.445.158h-.002Zm4.836-10.188h-4.663v2.54h4.752a3.048 3.048 0 0 1-.367-1.516c.013-.367.113-.714.278-1.024Zm2.549 0h-.25c-.635.058-1.15.508-1.17 1.073-.019.522.3 1.027.57 1.359.103.125.16.284.159.445v.367a.704.704 0 0 1-.704.702h-5.653v4.473c.502-.26 1.004-.384 1.515-.367 1.356.047 2.428 1.24 2.444 2.716v.035l-.004.086c-.101 1.496-1.236 2.651-2.607 2.57a3.026 3.026 0 0 1-1.348-.39v4.425h5.638c.187 0 .368.075.5.21a.697.697 0 0 1 .203.504l-.006.342a.708.708 0 0 1-.171.449c-.281.326-.617.826-.615 1.35.002.598.566 1.082 1.283 1.104h.058c.694-.035 1.258-.535 1.257-1.136-.002-.524-.339-1.015-.622-1.334a.704.704 0 0 1-.176-.448l-.007-.32a.7.7 0 0 1 .703-.72h5.603v-4.347c-.413.202-.839.329-1.254.303-.62 0-1.216-.253-1.677-.715a2.801 2.801 0 0 1-.801-1.983v-.087c.06-1.525 1.155-2.702 2.492-2.706h.009c.415 0 .826.097 1.23.292V18.82H38.47a.703.703 0 0 1-.703-.726l.01-.295a.702.702 0 0 1 .188-.456c.294-.315.647-.798.664-1.323.02-.581-.492-1.071-1.174-1.146Zm18.765 6.33c0-3.491-2.84-6.33-6.33-6.33H39.757c.192.358.292.765.278 1.193a3 3 0 0 1-.39 1.347h5.113c.389 0 .703.314.703.703v6.226a.7.7 0 0 1-.212.504.673.673 0 0 1-.509.2l-.175-.006a.703.703 0 0 1-.455-.182c-.31-.282-.786-.619-1.286-.619h-.005c-.571.003-1.06.598-1.09 1.33v.059c0 .378.14.738.39.986a.976.976 0 0 0 .682.303h.004c.504-.001.984-.343 1.298-.63a.707.707 0 0 1 .45-.183l.181-.006a.668.668 0 0 1 .513.197.706.706 0 0 1 .214.506v.38c.37-.222.802-.352 1.264-.352h5.274v-4.923a.704.704 0 0 1 1.407 0v5.625c0 .39-.314.704-.703.704h-5.978a1.056 1.056 0 0 0 0 2.11h8.088c.775 0 1.407-.631 1.407-1.406v-7.737ZM46.42 12.06c-2.945 0-4.924-2.261-4.924-5.626S43.475.807 46.42.807c2.945 0 4.923 2.262 4.923 5.627 0 3.365-1.978 5.626-4.923 5.626Zm0-9.846c-2.596 0-3.517 2.273-3.517 4.22 0 1.946.921 4.22 3.517 4.22 2.595 0 3.517-2.274 3.517-4.22 0-1.947-.922-4.22-3.517-4.22Zm-35.21 9.846c-2.946 0-4.924-2.261-4.924-5.626S8.263.807 11.208.807c2.944 0 4.923 2.262 4.923 5.627 0 3.365-1.979 5.626-4.923 5.626Zm0-9.846c-2.596 0-3.518 2.273-3.518 4.22 0 1.946.922 4.22 3.517 4.22 2.595 0 3.516-2.274 3.516-4.22 0-1.947-.92-4.22-3.516-4.22Zm0 32.352c.387 0 .702.314.702.703v11.253a.703.703 0 1 1-1.407 0V35.269c0-.39.316-.703.704-.703Zm6.33-.177c.387 0 .702.315.702.703v11.43a.703.703 0 1 1-1.407 0v-11.43c0-.388.315-.703.704-.703Zm22.55 3.55c.388 0 .703.316.703.705v7.878a.704.704 0 1 1-1.406 0v-7.878c0-.389.314-.704.703-.704Zm6.33-3.373c.388 0 .703.314.703.703v11.253a.704.704 0 1 1-1.407 0V35.269c0-.39.315-.703.704-.703Z" fill="#01859A"/></svg>