<svg width="70" height="80" fill="none" xmlns="http://www.w3.org/2000/svg"><g clip-path="url('#clip0_0_110')"><path opacity=".502" fill-rule="evenodd" clip-rule="evenodd" d="M34.762 69.754.055 43.129l.278-.344L34.762.109l.339.42 34.368 42.6-34.707 26.625Zm-.433-67.729L1.421 42.818l32.908 9.35V2.025Zm0 51.04L2.735 44.094 34.33 68.33V53.066Zm.87 15.264 31.595-24.238-31.596 8.974V68.33Zm0-16.162 32.907-9.35L35.198 2.03v50.138Zm-.476 21.877 29.443-23.206.54.679-29.989 23.631L4.403 50.863l.543-.673 29.777 23.854Zm-.054 4.618 19.996-15.759.54.678-20.539 16.187-20.763-16.632.543-.675 20.223 16.2Z" fill="#fff"/></g><defs><clipPath id="clip0_0_110"><path fill="#fff" d="M0 0h70v80H0z"/></clipPath></defs></svg>