<svg width="80" height="80" fill="none" xmlns="http://www.w3.org/2000/svg"><g clip-path="url('#clip0_0_114')"><path opacity=".502" fill-rule="evenodd" clip-rule="evenodd" d="M78.936 41.518 68.682 51.772V68.61H51.843L41.586 78.866a2.316 2.316 0 0 1-1.65.688 2.317 2.317 0 0 1-1.652-.688L28.027 68.61H11.19V51.775L.932 41.519a2.34 2.34 0 0 1 0-3.302L11.19 27.96v-16.84h16.837L38.283.864a2.342 2.342 0 0 1 1.65-.66c.631 0 1.234.241 1.654.66L51.843 11.12h16.84v16.84l10.254 10.256c.439.439.681 1.026.681 1.65 0 .625-.242 1.21-.682 1.652ZM11.19 35.901l-2.952 2.95a1.44 1.44 0 0 0 0 2.033l2.952 2.95V35.9Zm0 9.204L7.603 41.52a2.339 2.339 0 0 1 0-3.302l3.587-3.587v-5.402l-9.622 9.623c-.56.56-.56 1.471 0 2.033l9.622 9.622v-5.4Zm27.728 33.129c.262.26.632.408 1.018.408.384 0 .754-.148 1.014-.405l9.626-9.627h-5.402l-3.587 3.587a2.313 2.313 0 0 1-1.652.684 2.306 2.306 0 0 1-1.65-.682l-3.589-3.589h-5.402l9.624 9.624Zm4.986-9.624h-7.939l2.953 2.953c.26.26.63.408 1.016.408s.757-.148 1.018-.408l2.952-2.953Zm-31.816-.898h15.04l-15.04-15.039v15.039Zm0-16.31 16.307 16.31h5.402l-21.71-21.708v5.399Zm0-39.384v15.043l15.041-15.043H12.088Zm0 16.313v5.401L33.8 12.018h-5.4L12.087 28.331ZM40.952 1.5a1.43 1.43 0 0 0-1.017-.42c-.385 0-.746.15-1.018.419l-9.62 9.62h5.401l3.585-3.584c.42-.42 1.02-.661 1.652-.661.63 0 1.233.242 1.651.662l3.585 3.584h5.4l-9.62-9.62Zm-4.981 9.62h7.93l-2.95-2.948a1.424 1.424 0 0 0-1.016-.423c-.384 0-.744.149-1.015.423l-2.95 2.948Zm31.813.898H52.741l15.043 15.045V12.018Zm0 16.314L51.47 12.018h-5.4l21.715 21.715v-5.4Zm0 6.672L44.798 12.018h-9.725L12.088 35.002v9.731l22.979 22.979h9.736L67.784 44.73v-9.725Zm0 10.998-21.71 21.71h5.4l16.31-16.31v-5.4Zm0 6.667L52.742 67.712h15.042V52.669Zm.898-8.837 2.95-2.949c.56-.56.56-1.473 0-2.032l-2.95-2.949v7.93Zm9.62-4.982-9.62-9.619v5.399l3.586 3.586a2.34 2.34 0 0 1 0 3.302l-3.586 3.586v5.399l9.62-9.62a1.44 1.44 0 0 0 0-2.033ZM39.935 66.215c-.623 0-1.21-.245-1.651-.688L14.272 41.52a2.342 2.342 0 0 1 0-3.303l24.01-24.013c.42-.419 1.022-.659 1.652-.659.63 0 1.233.24 1.653.66L65.6 38.216c.908.908.908 2.39 0 3.302l-24.013 24.01a2.315 2.315 0 0 1-1.652.687ZM27.178 52.623h4.87l-4.87-4.868v4.868Zm-.898-18.474-4.702 4.702a1.44 1.44 0 0 0 0 2.033l4.702 4.702V34.15Zm0 12.708-5.338-5.338a2.343 2.343 0 0 1 0-3.303l5.338-5.34v-5.398L14.91 38.85a1.44 1.44 0 0 0-.001 2.033L26.28 52.256v-5.399Zm.898-14.878 4.87-4.87h-4.87v4.87Zm13.774-17.14a1.441 1.441 0 0 0-2.035-.002l-11.37 11.374h5.4l5.336-5.336a2.34 2.34 0 0 1 1.652-.661c.63 0 1.233.241 1.651.663l5.336 5.334h5.401L40.952 14.84Zm-6.733 11.372h11.433l-4.7-4.7a1.427 1.427 0 0 0-1.017-.423c-.385 0-.745.15-1.015.423l-4.701 4.7Zm18.473.898h-4.871l4.871 4.87v-4.87Zm12.271 13.774a1.443 1.443 0 0 0 .001-2.032L53.59 27.478v5.4l5.34 5.338a2.34 2.34 0 0 1-.002 3.302l-5.338 5.34-.001 5.398 11.374-11.373ZM53.59 45.586l4.702-4.703c.272-.271.42-.631.421-1.016 0-.385-.149-.745-.42-1.017l-4.703-4.702v11.438ZM46.55 27.11H33.32l-6.143 6.142v13.233l6.14 6.139h13.234l6.14-6.139V33.25L46.55 27.11Zm-12.335 26.41 4.703 4.705c.26.26.63.41 1.016.41.385 0 .757-.15 1.018-.41l4.704-4.704H34.215Zm18.477-5.764-4.869 4.868h4.868l.001-4.868Zm-5.766 5.765-5.34 5.339a2.324 2.324 0 0 1-1.65.684 2.308 2.308 0 0 1-1.65-.684l-5.341-5.34h-5.4l11.373 11.374c.26.262.632.411 1.018.411.384 0 .754-.149 1.014-.41L52.326 53.52h-5.4Z" fill="#fff"/></g><defs><clipPath id="clip0_0_114"><path fill="#fff" d="M0 0h80v80H0z"/></clipPath></defs></svg>