<svg width="48" height="32" fill="none" xmlns="http://www.w3.org/2000/svg"><path fill-rule="evenodd" clip-rule="evenodd" d="M44.014 8.834c-2.731 1.849-4.673.972-4.673.972s.428-.615.68-1.536c.164-.604.175-1.092.175-1.872 0-4.85 6.897-6.215 7.018-6.264a7.895 7.895 0 0 0-.088.549c-.219 1.659-.882 6.597-3.112 8.151Zm-6.741-.94c-2.718-1.447-1.54-5.92-1.54-5.845-.031.069 3.648 2.19 3.957 4.28.268 2.122-.66 2.895-.66 2.895s-.48-.65-1.757-1.33Zm3.118 5.052c.892 1.886 1.336 4.076 1.336 6.581 0 1.574-.14 2.966-.48 4.254-.304 1.287-.784 2.472-1.434 3.48a8.61 8.61 0 0 1-2.28 2.58 8.657 8.657 0 0 1-3.007 1.534c-1.233.347-2.627.49-4.17.49h-4.082l-9.93-14.67 9.415-9.89h4.597c2.395.034 4.412.52 6.083 1.43 1.702.975 3.033 2.365 3.952 4.211Zm-7.366 2.265c-.65-.729-1.573-1.183-2.669-1.391a8.742 8.742 0 0 0-1.432-.106H27.57v11.74h1.293c.541 0 1.022-.037 1.494-.14 1.096-.212 2.019-.664 2.669-1.36.953-1.01 1.434-2.472 1.434-4.427 0-1.879-.48-3.34-1.434-4.316Zm-8.598 16.654h-9.006L9.45 22.14l-2.146 2.337v7.387H.029V7.305h7.274v7.906l7.096-7.907h9.214L14.4 17.058l10.027 14.807Zm18.238-21.84c1.22-.443 2.302-.152 3.203.427 1.28.823 2.121 2.11 2.103 2.068-.022-.05-2.068.718-3.867.743-.719.009-1.578-.204-2.073-.533-1.379-.917-1.57-2.316-1.57-2.316s1.013.046 2.204-.388Z" fill="#272727"/></svg>