<svg width="15" height="24" fill="none" xmlns="http://www.w3.org/2000/svg"><g clip-path="url('#clip0_0_539')"><path fill-rule="evenodd" clip-rule="evenodd" d="M7.742 12.595c3.525 0 6.38-2.69 6.379-6.007C14.119 3.27 11.261.584 7.738.585c-3.524.001-6.38 2.69-6.378 6.008.004 3.315 2.86 6 6.382 6.002Zm0-8.49c1.46 0 2.644 1.114 2.644 2.488 0 1.375-1.183 2.487-2.644 2.487-1.46 0-2.643-1.114-2.643-2.487.003-1.374 1.185-2.486 2.643-2.488Zm2.58 13.39a12.341 12.341 0 0 0 3.707-1.444c.868-.527 1.119-1.617.558-2.435-.551-.804-1.686-1.047-2.553-.545a8.533 8.533 0 0 1-8.59 0c-.872-.515-2.024-.27-2.573.55-.551.821-.293 1.909.581 2.427l.002.001a12.378 12.378 0 0 0 3.705 1.445L1.59 20.852a1.688 1.688 0 0 0 .074 2.49c.723.642 1.85.642 2.572 0l3.504-3.3 3.506 3.3c.73.686 1.912.686 2.642 0a1.686 1.686 0 0 0 0-2.486l-3.566-3.36Z" fill="#A6A5A5"/></g><defs><clipPath id="clip0_0_539"><path fill="#fff" d="M0 0h15v24H0z"/></clipPath></defs></svg>