<svg width="20" height="20" fill="none" xmlns="http://www.w3.org/2000/svg"><g clip-path="url('#clip0_0_526')"><path fill-rule="evenodd" clip-rule="evenodd" d="m19.236 17.683-1.41 1.41a1.02 1.02 0 0 1-1.445 0l-1.248-1.248-3.03-3.031a1.014 1.014 0 0 1-.202-1.152l-1.085-1.085a6.545 6.545 0 0 1-3.613 1.077 6.554 6.554 0 0 1-4.664-1.931A6.552 6.552 0 0 1 .607 7.059c0-1.762.686-3.418 1.932-4.664a6.603 6.603 0 0 1 9.327 0c2.245 2.245 2.53 5.72.854 8.277l1.086 1.086c.378-.175.84-.11 1.152.202l3.03 3.029 1.248 1.248c.193.193.3.45.3.723 0 .273-.107.53-.3.723Zm-8.007-14.65a5.676 5.676 0 0 0-4.026-1.666 5.678 5.678 0 0 0-4.027 1.665 5.701 5.701 0 0 0 0 8.053 5.658 5.658 0 0 0 4.027 1.668 5.655 5.655 0 0 0 4.026-1.668 5.7 5.7 0 0 0 0-8.053Zm.94 8.363c-.097.11-.197.22-.303.327a6.751 6.751 0 0 1-.327.303l.954.953.63-.63-.954-.953Zm6.43 5.478-1.248-1.247-3.03-3.03a.121.121 0 0 0-.172 0l-1.409 1.409a.119.119 0 0 0-.036.085c0 .024.007.057.036.086l3.03 3.03 1.248 1.248a.122.122 0 0 0 .172 0l1.409-1.41a.121.121 0 0 0 0-.171ZM9.834 4.284a3.696 3.696 0 0 0-2.631-1.09c-.994 0-1.93.387-2.632 1.09a.449.449 0 0 1-.637 0 .45.45 0 0 1 0-.637 4.594 4.594 0 0 1 3.269-1.354 4.59 4.59 0 0 1 3.268 1.354.45.45 0 1 1-.637.638Z" fill="#01859A"/></g><defs><clipPath id="clip0_0_526"><path fill="#fff" d="M0 0h20v20H0z"/></clipPath></defs></svg>