<svg width="25" height="20" fill="none" xmlns="http://www.w3.org/2000/svg"><g clip-path="url('#clip0_0_541')"><path fill-rule="evenodd" clip-rule="evenodd" d="M17.27 18.602c.387.254.767.515 1.185.719.51.25 1.03.468 1.607.514.47.038.862-.104 1.156-.47a1.94 1.94 0 0 0 .4-.853c.07-.363.126-.727.185-1.092l.48-2.96c.25-1.538.502-3.075.75-4.61.174-1.08.346-2.162.515-3.243.19-1.206.38-2.412.56-3.62.064-.437.143-.874.14-1.319 0-.088.002-.174 0-.262-.02-.567-.4-.936-.977-.958a2.88 2.88 0 0 0-1.198.227c-.29.118-.579.24-.87.357-1.715.688-3.423 1.39-5.132 2.094-1.6.66-3.21 1.3-4.816 1.95-1.908.772-3.816 1.548-5.724 2.32-1.258.509-2.516 1.016-3.775 1.522-.33.133-.65.286-.941.488a1.333 1.333 0 0 0-.31.291.63.63 0 0 0 .001.802c.123.164.287.26.482.324 1.193.39 2.388.774 3.592 1.135.645.194 1.295.317 1.976.256.431-.039.828-.146 1.191-.388 1.273-.847 2.55-1.69 3.826-2.532 1.669-1.101 3.335-2.205 5.007-3.3.403-.264.818-.514 1.287-.66a.796.796 0 0 1 .322-.05c.156.016.232.1.227.254a.734.734 0 0 1-.086.287c-.144.301-.33.573-.57.807-.575.556-1.15 1.11-1.73 1.662-.516.489-1.043.966-1.558 1.457-.721.687-1.459 1.356-2.195 2.027a89.8 89.8 0 0 1-.936.844 1.962 1.962 0 0 0-.413.496c-.168.295-.191.598-.037.907.073.146.164.278.281.393.252.248.543.45.826.66.852.631 1.732 1.222 2.618 1.805.88.58 1.774 1.14 2.653 1.719Z" fill="#A6A5A5"/></g><defs><clipPath id="clip0_0_541"><path fill="#fff" d="M0 0h25v20H0z"/></clipPath></defs></svg>