<svg width="26" height="16" fill="none" xmlns="http://www.w3.org/2000/svg"><g clip-path="url('#clip0_0_537')"><path fill-rule="evenodd" clip-rule="evenodd" d="M14.846 4.377v2.795c0 .176.019.35.092.51.102.226.258.3.496.248.214-.047.385-.174.55-.31.517-.424.93-.942 1.319-1.482 1.055-1.465 1.892-3.055 2.6-4.716.22-.511.594-.782 1.14-.787.96-.007 1.918-.002 2.877 0 .156 0 .308.024.454.083.228.091.352.26.365.511.013.256-.062.496-.145.732-.257.73-.634 1.399-1.018 2.064-.793 1.373-1.666 2.694-2.562 3.998-.065.095-.12.198-.177.3-.153.269-.13.53.035.785.134.206.29.396.465.566a29.991 29.991 0 0 1 2.594 2.853c.45.57.896 1.144 1.19 1.82.054.123.095.25.118.384.09.547-.161.897-.703.974a2.74 2.74 0 0 1-.383.029c-.8-.002-1.6-.024-2.4.005-.637.025-1.142-.202-1.563-.669-.42-.465-.841-.93-1.265-1.394-.631-.69-1.298-1.343-2.053-1.897a3.583 3.583 0 0 0-.853-.484 1.34 1.34 0 0 0-.73-.072.456.456 0 0 0-.39.353c-.043.161-.053.327-.053.493v2.593c-.013.583-.227.851-.793.966-.615.125-1.238.13-1.86.067-1.986-.199-3.687-1.06-5.213-2.32-1.058-.872-1.924-1.917-2.695-3.051C3.397 9.015 2.572 7.67 1.87 6.25 1.193 4.888.6 3.493.26 1.998a3.07 3.07 0 0 1-.073-.477C.149.969.387.689.93.64a2.81 2.81 0 0 1 .252-.009H3.82c.114 0 .229.005.343.023.3.045.52.206.68.464.122.2.2.42.275.639a26.586 26.586 0 0 0 1.805 4.12c.44.804.915 1.585 1.492 2.297.227.281.467.551.762.762.144.104.293.198.484.191.201-.007.321-.089.386-.286.065-.196.08-.404.08-.61.002-1.41.01-2.821-.003-4.231-.006-.758-.236-1.445-.732-2.027a2.69 2.69 0 0 1-.236-.323C8.883 1.213 9.139.69 9.65.638c.07-.007.14-.006.211-.006h4.096c.627 0 .872.228.88.87.014.96.004 1.917.004 2.875h.005Z" fill="#A6A5A5"/></g><defs><clipPath id="clip0_0_537"><path fill="#fff" d="M0 0h26v16H0z"/></clipPath></defs></svg>