<svg width="24" height="24" fill="none" xmlns="http://www.w3.org/2000/svg"><g clip-path="url('#clip0_0_545')"><path fill-rule="evenodd" clip-rule="evenodd" d="M20.504 3.488A11.903 11.903 0 0 0 12.05 0C5.465 0 .1 5.335.1 11.891a11.787 11.787 0 0 0 1.594 5.946L0 24l6.336-1.657a12.001 12.001 0 0 0 5.71 1.45h.005c6.586 0 11.945-5.334 11.949-11.894a11.8 11.8 0 0 0-3.496-8.411ZM12.05 21.784h-.004a9.965 9.965 0 0 1-5.055-1.377l-.363-.214-3.762.98 1.004-3.647-.234-.374a9.826 9.826 0 0 1-1.52-5.26c0-5.449 4.457-9.882 9.938-9.882a9.886 9.886 0 0 1 7.02 2.897A9.808 9.808 0 0 1 21.98 11.9c0 5.452-4.457 9.885-9.93 9.885Zm5.445-7.404c-.297-.148-1.765-.867-2.039-.965-.273-.1-.473-.147-.672.148-.2.3-.77.968-.945 1.167-.172.194-.348.221-.645.074-.3-.148-1.261-.463-2.402-1.478-.887-.786-1.488-1.761-1.66-2.057-.176-.3-.02-.459.129-.607.136-.132.3-.346.449-.52.148-.172.2-.296.3-.495.098-.198.048-.373-.027-.52-.074-.148-.671-1.614-.921-2.21-.243-.579-.489-.497-.672-.509-.172-.007-.371-.007-.57-.007-.2 0-.524.073-.798.373C6.75 7.069 5.98 7.789 5.98 9.25s1.07 2.877 1.22 3.076c.148.194 2.105 3.196 5.1 4.483.712.307 1.266.49 1.7.626.715.226 1.367.195 1.883.12.574-.085 1.765-.719 2.015-1.415.247-.692.247-1.287.172-1.411-.074-.125-.273-.199-.574-.35Z" fill="#A6A5A5"/></g><defs><clipPath id="clip0_0_545"><path fill="#fff" d="M0 0h24v24H0z"/></clipPath></defs></svg>