<svg width="30" height="30" viewBox="0 0 30 30" fill="none" xmlns="http://www.w3.org/2000/svg">
<rect x="0.5" y="29.5" width="29" height="29" transform="rotate(-90 0.5 29.5)" stroke="#01859A"/>
<path d="M8.32 22.256L10.88 22.8V22.24H13.6V25.232H11.04L8.32 24V22.256ZM12.032 20.5582C11.5093 20.5156 11.0453 20.3982 10.64 20.2062C10.2347 20.0142 9.89333 19.7689 9.616 19.4702C9.33867 19.1609 9.13067 18.8089 8.992 18.4142C8.85333 18.0089 8.784 17.5769 8.784 17.1182C8.784 16.0622 9.04533 15.2302 9.568 14.6222C10.08 14.0036 10.8213 13.6942 11.792 13.6942C12.24 13.6942 12.6507 13.7582 13.024 13.8862C13.3973 14.0142 13.7813 14.2116 14.176 14.4782L17.68 16.9742V13.7582L20 13.7582V20.4462H18.016L13.024 16.8942C12.8747 16.7982 12.7147 16.7236 12.544 16.6702C12.3733 16.6062 12.1813 16.5742 11.968 16.5742C11.7653 16.5742 11.5947 16.6169 11.456 16.7023C11.3067 16.7769 11.232 16.9209 11.232 17.1342C11.232 17.3156 11.312 17.4596 11.472 17.5662C11.632 17.6729 11.952 17.7476 12.432 17.7902L12.032 20.5582ZM13.856 5.18275H16.16V4.44675H18.464V5.18275H20V7.99875H18.464V12.2547H16.544L8.864 9.32675V6.55875L16.16 9.31075V7.99875H13.856V5.18275Z" fill="#01859A"/>
</svg>
