<svg width="24" height="24" viewBox="0 0 24 24" fill="none" xmlns="http://www.w3.org/2000/svg">
<g clip-path="url(#clip0_0_543)">
<path fill-rule="evenodd" clip-rule="evenodd" d="M23.8469 11.6863C23.3695 11.6642 22.8915 11.6433 22.4141 11.6143C21.8166 11.5764 21.2173 11.5379 20.6238 11.4646C19.9991 11.3875 19.3771 11.284 18.7602 11.1621C18.0512 11.0219 17.3689 10.7951 16.7196 10.4806C15.8796 10.0732 15.1453 9.53195 14.5258 8.8429C14.1003 8.36985 13.7455 7.85195 13.4646 7.28606C12.9821 6.31217 12.7168 5.27511 12.5754 4.21027C12.4612 3.35259 12.3762 2.49048 12.3114 1.62838C12.2809 1.21848 12.2595 0.807955 12.2419 0.397429C12.1537 0.395534 12.0668 0.391113 11.9779 0.391113C11.8897 0.391113 11.8022 0.395534 11.7139 0.397429C11.6984 0.77385 11.6796 1.14901 11.6504 1.52417C11.5855 2.37427 11.5077 3.22564 11.4065 4.07259C11.3105 4.87974 11.1321 5.67301 10.8551 6.44227C10.4251 7.63469 9.74789 8.6648 8.76065 9.49595C8.04778 10.096 7.24411 10.5393 6.35741 10.8419C5.46681 11.1456 4.54832 11.3288 3.61232 11.4267C2.84886 11.5063 2.08476 11.577 1.31935 11.6326C0.91654 11.6629 0.512432 11.6806 0.108324 11.6976C0.106378 11.7835 0.101837 11.8682 0.101837 11.9547C0.101837 12.0393 0.106378 12.1227 0.108324 12.2067C0.143999 12.2086 0.180324 12.2086 0.215999 12.2111C1.12346 12.2667 2.03157 12.3153 2.93708 12.3949C3.90097 12.4783 4.85643 12.6248 5.79049 12.8831C6.88865 13.1863 7.89081 13.6682 8.75741 14.3995C9.61557 15.124 10.2506 16.005 10.6839 17.0263C10.9719 17.704 11.171 18.4063 11.2891 19.1282C11.3877 19.7351 11.4752 20.3433 11.5466 20.9534C11.5998 21.4157 11.6264 21.8825 11.6523 22.3473C11.6737 22.7357 11.6899 23.1242 11.7094 23.512C11.7989 23.5139 11.8878 23.5183 11.9779 23.5183C12.0707 23.5183 12.1622 23.5139 12.2543 23.5113C12.2705 23.1703 12.2835 22.8292 12.3029 22.4882C12.3347 21.9254 12.3671 21.3608 12.432 20.8012C12.5066 20.164 12.6026 19.5286 12.7174 18.8983C12.8621 18.0993 13.1059 17.3275 13.475 16.5987C13.9317 15.6962 14.5524 14.9174 15.3568 14.2783C16.1066 13.6814 16.9492 13.2614 17.8683 12.9747C18.4988 12.7783 19.1429 12.6368 19.7981 12.5503C20.3838 12.4726 20.9695 12.3987 21.5572 12.3444C22.0819 12.2957 22.6086 12.2724 23.1354 12.2465C23.3728 12.2351 23.6102 12.2269 23.8476 12.2162C23.8495 12.1284 23.8541 12.0425 23.8541 11.9547C23.8541 11.865 23.8495 11.776 23.8469 11.6863Z" fill="#A6A5A5"/>
</g>
<defs>
<clipPath id="clip0_0_543">
<rect width="24" height="24" fill="white"/>
</clipPath>
</defs>
</svg>
