<svg width="80" height="80" viewBox="0 0 80 80" fill="none" xmlns="http://www.w3.org/2000/svg">
<g clip-path="url(#clip0_0_114)">
<path opacity="0.502" fill-rule="evenodd" clip-rule="evenodd" d="M78.9356 41.5181L68.6821 51.7716V68.6104H51.8434L41.5865 78.8664C41.1461 79.3085 40.56 79.5535 39.9352 79.5535C39.3112 79.5535 38.7242 79.3085 38.2838 78.8664L28.0269 68.6104H11.1899V51.775L0.932206 41.519C0.0235745 40.6061 0.0235745 39.124 0.932206 38.2171L11.1899 27.9586V11.1198H28.0269L38.2829 0.862982C38.7015 0.444455 39.3036 0.203613 39.9335 0.203613C40.5642 0.203613 41.1672 0.444455 41.5865 0.862982L51.8434 11.1198H68.6821V27.9602L78.9372 38.2162C79.376 38.655 79.6185 39.2419 79.6185 39.8651C79.6185 40.4908 79.376 41.0769 78.9356 41.5181ZM11.1899 35.9005L8.23831 38.8512C7.67831 39.4104 7.67831 40.3223 8.23831 40.884L11.1899 43.8348V35.9005ZM11.1899 45.1055L7.60336 41.519C6.69389 40.6061 6.69389 39.124 7.60336 38.2171L11.1899 34.6297V29.2285L1.568 38.8512C1.00884 39.4104 1.00884 40.3223 1.568 40.884L11.1899 50.5059V45.1055ZM38.9179 78.2339C39.1798 78.4941 39.5503 78.6424 39.936 78.6424C40.32 78.6424 40.6897 78.4941 40.9499 78.2365L50.576 68.6104H45.1739L41.5865 72.1969C41.1453 72.6398 40.5592 72.8815 39.9352 72.8815C39.3086 72.8815 38.7225 72.6398 38.2855 72.1994L34.6964 68.6104H29.2943L38.9179 78.2339ZM43.904 68.6104H35.9655L38.9179 71.5628C39.1773 71.823 39.5478 71.9712 39.9335 71.9712C40.32 71.9712 40.6914 71.823 40.9516 71.5628L43.904 68.6104ZM12.0876 67.7118H27.1276L12.0876 52.6735V67.7118ZM12.0876 51.4028L28.3949 67.7118H33.797L12.0876 46.004V51.4028ZM12.0876 12.0184V27.0609L27.1293 12.0184H12.0876ZM12.0876 28.3308V33.732L33.8004 12.0184H28.3992L12.0876 28.3308ZM40.9516 1.49961C40.6804 1.2293 40.32 1.08024 39.9352 1.08024C39.5503 1.08024 39.189 1.2293 38.917 1.49877L29.2968 11.1198H34.6981L38.2829 7.53498C38.7032 7.11561 39.3036 6.87393 39.9352 6.87393C40.5659 6.87393 41.168 7.11561 41.5865 7.53582L45.1714 11.1198H50.5718L40.9516 1.49961ZM35.9705 11.1198H43.9006L40.9516 8.17161C40.6787 7.89793 40.3183 7.74888 39.9352 7.74888C39.5512 7.74888 39.1907 7.89793 38.9196 8.17161L35.9705 11.1198ZM67.7844 12.0184H52.741L67.7844 27.0626V12.0184ZM67.7844 28.3325L51.4695 12.0184H46.069L67.7844 33.7329V28.3325ZM67.7844 35.0045L44.7983 12.0184H35.0728L12.0876 35.0019V44.7333L35.0669 67.7118H44.8025L67.7844 44.7299V35.0045ZM67.7844 46.0015L46.0733 67.7118H51.4745L67.7844 51.4011V46.0015ZM67.7844 52.6693L52.7419 67.7118H67.7844V52.6693ZM68.6821 43.8322L71.6311 40.8832C72.1911 40.3223 72.1911 39.4104 71.6311 38.8512L68.6821 35.9021V43.8322ZM78.3015 38.8503L68.6821 29.231V34.6297L72.2678 38.2162C73.1764 39.124 73.1764 40.6061 72.2678 41.5181L68.6821 45.1038V50.5026L78.3015 40.8832C78.8615 40.3207 78.8615 39.4087 78.3015 38.8503ZM39.9352 66.2146C39.312 66.2146 38.7259 65.9704 38.2838 65.5274L14.272 41.519C13.3642 40.6061 13.3625 39.124 14.272 38.2162L38.2829 14.2028C38.7015 13.7842 39.3036 13.5442 39.9335 13.5442C40.5642 13.5442 41.1672 13.7842 41.5865 14.2036L65.6 38.2162C66.5078 39.124 66.5078 40.6061 65.6 41.5181L41.5865 65.5274C41.1453 65.9704 40.5592 66.2146 39.9352 66.2146ZM27.1781 52.623H32.048L27.1781 47.7548V52.623ZM26.2804 34.1489L21.5781 38.8512C21.0181 39.4104 21.0181 40.3223 21.5781 40.884L26.2804 45.5863V34.1489ZM26.2804 46.8571L20.9415 41.519C20.0345 40.6061 20.0328 39.124 20.9415 38.2162L26.2804 32.8765V27.4777L14.9086 38.8512C14.3486 39.4104 14.3486 40.3223 14.9078 40.884L26.2804 52.2558V46.8571ZM27.1781 31.9788L32.048 27.1089H27.1781V31.9788ZM40.9516 14.8394C40.6804 14.5691 40.32 14.4192 39.9352 14.4192C39.5503 14.4192 39.189 14.5691 38.917 14.8377L27.5461 26.2112H32.9465L38.2829 20.8748C38.7032 20.4546 39.3036 20.2137 39.9352 20.2137C40.5659 20.2137 41.168 20.4554 41.5865 20.8765L46.9221 26.2112H52.3234L40.9516 14.8394ZM34.2189 26.2112H45.6522L40.9516 21.5106C40.6804 21.2386 40.3192 21.0878 39.9352 21.0878C39.5503 21.0878 39.1899 21.2386 38.9196 21.5106L34.2189 26.2112ZM52.6922 27.1089H47.8206L52.6922 31.9796V27.1089ZM64.9634 40.8832C65.5217 40.3223 65.5217 39.4104 64.9642 38.8512L53.5899 27.4777V32.8773L58.9297 38.2162C59.8383 39.1249 59.8383 40.6061 58.928 41.5181L53.5899 46.8571L53.589 52.2558L64.9634 40.8832ZM53.5899 45.5863L58.2922 40.8832C58.5642 40.612 58.7124 40.2516 58.7133 39.8668C58.7133 39.4819 58.5642 39.1215 58.2922 38.8503L53.5899 34.148V45.5863ZM46.5499 27.1089H33.3213L27.1781 33.2512V46.484L33.3179 52.623H46.5524L52.6922 46.484V33.2504L46.5499 27.1089ZM34.2147 53.5198L38.9179 58.2238C39.1773 58.4832 39.5478 58.6331 39.9335 58.6331C40.3192 58.6331 40.6914 58.4832 40.9516 58.2247L45.6556 53.5198H34.2147ZM52.6922 47.7548L47.8232 52.623H52.6914L52.6922 47.7548ZM46.9263 53.5198L41.5865 58.8588C41.1444 59.3 40.5575 59.5434 39.9352 59.5434C39.3095 59.5434 38.7234 59.3 38.2855 58.8588L32.9448 53.5198H27.5444L38.9179 64.8933C39.1781 65.1552 39.5503 65.3043 39.936 65.3043C40.32 65.3043 40.6897 65.1552 40.9499 64.8941L52.3259 53.5198H46.9263Z" fill="white"/>
</g>
<defs>
<clipPath id="clip0_0_114">
<rect width="80" height="80" fill="white"/>
</clipPath>
</defs>
</svg>
