<svg width="70" height="80" viewBox="0 0 70 80" fill="none" xmlns="http://www.w3.org/2000/svg">
<g clip-path="url(#clip0_0_110)">
<path opacity="0.502" fill-rule="evenodd" clip-rule="evenodd" d="M34.7619 69.7537L0.0551758 43.1291L0.332965 42.7849L34.7619 0.108887L35.1009 0.528703L69.4694 43.1291L34.7619 69.7537ZM34.3294 2.02522L1.42054 42.8179L34.3294 52.1676V2.02522ZM34.3294 53.0659L2.73507 44.0927L34.3294 68.3313V53.0659ZM35.1981 68.3291L66.7939 44.0913L35.1981 53.0652V68.3291ZM35.1981 52.1669L68.1062 42.8179L35.1981 2.02889V52.1669ZM34.7229 74.0443L64.1663 50.8377L64.7057 51.5166L34.717 75.1481L4.40254 50.8634L4.9456 50.1904L34.7229 74.0443ZM34.6691 78.6615L54.6648 62.903L55.2049 63.5812L34.6661 79.7683L13.9034 63.1364L14.4464 62.4612L34.6691 78.6615Z" fill="white"/>
</g>
<defs>
<clipPath id="clip0_0_110">
<rect width="70" height="80" fill="white"/>
</clipPath>
</defs>
</svg>
