<svg width="64" height="80" viewBox="0 0 64 80" fill="none" xmlns="http://www.w3.org/2000/svg">
<g clip-path="url(#clip0_0_118)">
<path opacity="0.502" fill-rule="evenodd" clip-rule="evenodd" d="M36.1896 44.0844H27.6481H0.190918L18.1909 12.8603L21.2396 18.1494L31.5136 0.32373L42.1935 18.8506L45.6468 12.8603L63.6461 44.0844H36.1896ZM35.161 43.4919L31.9201 37.8697L28.6792 43.4919H35.161ZM34.874 31.5478H28.963L31.9188 36.6756L34.874 31.5478ZM18.1909 14.0532L1.22209 43.4919H27.9896L31.5753 37.2714L28.276 31.5478H13.5162L20.8955 18.7458L18.1909 14.0532ZM21.2396 19.3423L14.5481 30.9527H27.9325L21.2396 19.3423ZM31.5136 1.51462L21.5831 18.7458L28.6201 30.9527H35.2175L41.8507 19.4457L31.5136 1.51462ZM35.9065 30.9527H48.4844L42.1948 20.0421L35.9065 30.9527ZM42.5377 19.4476L49.513 31.5478H35.5636L32.2636 37.2733L35.8481 43.4919H62.6124L45.6468 14.0532L42.5377 19.4476ZM31.5162 79.9556L13.5162 48.7315H49.513L31.5162 79.9556ZM31.5162 78.7654L48.4844 49.3267H14.5481L31.5162 78.7654ZM31.5162 73.0314L25.7312 62.9943H37.302L31.5162 73.0314Z" fill="white"/>
</g>
<defs>
<clipPath id="clip0_0_118">
<rect width="63.6364" height="80" fill="white"/>
</clipPath>
</defs>
</svg>
