<svg width="48" height="32" viewBox="0 0 48 32" fill="none" xmlns="http://www.w3.org/2000/svg">
<path fill-rule="evenodd" clip-rule="evenodd" d="M44.0136 8.83428C41.283 10.6828 39.3409 9.80578 39.3409 9.80578C39.3409 9.80578 39.769 9.19128 40.0203 8.27028C40.1853 7.66628 40.1961 7.17828 40.1961 6.39828C40.1961 1.54778 47.0934 0.182777 47.2139 0.134277C47.212 0.142777 47.1703 0.343277 47.1257 0.682777C46.9073 2.34178 46.2441 7.27978 44.0136 8.83428ZM37.273 7.89428C34.5551 6.44728 35.7326 1.97328 35.7326 2.04928C35.7018 2.11778 39.3806 4.23828 39.6902 6.32828C39.9581 8.45078 39.0309 9.22428 39.0309 9.22428C39.0309 9.22428 38.5499 8.57378 37.273 7.89428ZM40.3906 12.9463C41.283 14.8323 41.7272 17.0223 41.7272 19.5273C41.7272 21.1008 41.5876 22.4928 41.2472 23.7813C40.9431 25.0683 40.4631 26.2533 39.8126 27.2608C39.1994 28.3118 38.4505 29.1463 37.5326 29.8418C36.6402 30.5383 35.6498 31.0578 34.5257 31.3753C33.2929 31.7223 31.8995 31.8648 30.3561 31.8648C30.3282 31.8648 30.2954 31.8648 30.2582 31.8648H26.2742L16.344 17.1958L25.7589 7.30428H30.0902C30.1563 7.30428 30.2582 7.30428 30.3561 7.30428C32.7507 7.33928 34.7682 7.82578 36.4389 8.73578C38.1409 9.71028 39.4717 11.0998 40.3906 12.9463ZM33.0245 15.2113C32.3746 14.4823 31.4518 14.0283 30.3561 13.8198C29.9197 13.7468 29.4397 13.7143 28.9244 13.7143H27.5687V25.4548H28.8622C29.403 25.4548 29.8835 25.4173 30.3561 25.3138C31.4518 25.1018 32.3746 24.6503 33.0245 23.9543C33.9782 22.9438 34.4586 21.4818 34.4586 19.5273C34.4586 17.6483 33.9782 16.1863 33.0245 15.2113ZM24.4271 31.8648H15.4213L9.44869 22.1408L7.30289 24.4778V31.8648H0.0289307V7.30428H7.30289V15.2113L14.3995 7.30428H23.6126L14.3995 17.0583L24.4271 31.8648ZM42.6647 10.0258C43.8843 9.58178 44.9672 9.87278 45.8675 10.4518C47.1473 11.2753 47.9893 12.5623 47.9706 12.5203C47.9491 12.4698 45.9032 13.2383 44.1037 13.2628C43.3852 13.2718 42.5261 13.0588 42.0309 12.7298C40.6521 11.8128 40.4606 10.4143 40.4606 10.4143C40.4606 10.4143 41.4735 10.4603 42.6647 10.0258Z" fill="#272727"/>
</svg>
