<svg width="15" height="24" viewBox="0 0 15 24" fill="none" xmlns="http://www.w3.org/2000/svg">
<g clip-path="url(#clip0_0_539)">
<path fill-rule="evenodd" clip-rule="evenodd" d="M7.74226 12.5955C11.2673 12.5941 14.1218 9.90473 14.121 6.58778C14.1195 3.27084 11.2613 0.58355 7.73776 0.584961C4.21426 0.586373 1.35826 3.27578 1.35976 6.59273C1.36426 9.90755 4.22026 12.5927 7.74226 12.5955ZM7.74226 4.1052C9.20251 4.1052 10.386 5.21908 10.386 6.59343C10.386 7.96778 9.20251 9.08026 7.74226 9.08026C6.28276 9.08026 5.09926 7.96637 5.09926 6.59273C5.10151 5.21908 6.28351 4.10661 7.74226 4.1052ZM10.3223 17.4958C11.6355 17.2148 12.888 16.7264 14.0288 16.0508C14.8973 15.5235 15.1478 14.4337 14.5868 13.6163C14.0355 12.8116 12.9008 12.5687 12.0345 13.0706C9.40726 14.6172 6.07126 14.6172 3.44401 13.0706C2.57176 12.556 1.41976 12.8017 0.870757 13.6219C0.319507 14.4421 0.578257 15.5299 1.45201 16.048L1.45426 16.0494C2.59351 16.7235 3.84601 17.2127 5.15851 17.4944L1.59001 20.8523C0.879757 21.5588 0.912757 22.6734 1.66426 23.3419C2.38651 23.9843 3.51451 23.9843 4.23601 23.3419L7.74001 20.0419L11.2463 23.3419C11.9768 24.028 13.158 24.028 13.8878 23.3419C14.6168 22.6551 14.6168 21.5433 13.8878 20.8558L10.3223 17.4958Z" fill="#A6A5A5"/>
</g>
<defs>
<clipPath id="clip0_0_539">
<rect width="15" height="24" fill="white"/>
</clipPath>
</defs>
</svg>
