<svg width="20" height="20" viewBox="0 0 20 20" fill="none" xmlns="http://www.w3.org/2000/svg">
<g clip-path="url(#clip0_0_526)">
<path fill-rule="evenodd" clip-rule="evenodd" d="M19.2357 17.6833L17.8269 19.0921C17.6276 19.2915 17.3657 19.3915 17.1038 19.3915C16.8419 19.3915 16.5801 19.2921 16.3813 19.0921L15.1326 17.8446L12.1032 14.814C11.9101 14.6215 11.8038 14.3646 11.8038 14.0915C11.8038 13.9402 11.8394 13.7952 11.9013 13.6621L10.8163 12.5771C9.75193 13.2777 8.50631 13.654 7.20256 13.654C5.44068 13.654 3.78443 12.9677 2.53881 11.7227C1.29318 10.4771 0.606934 8.82084 0.606934 7.05896C0.606934 5.29709 1.29318 3.64084 2.53881 2.39521C5.11068 -0.17666 9.29506 -0.17666 11.8663 2.39521C14.1113 4.64021 14.3957 8.11459 12.7201 10.6721L13.8063 11.7583C14.1844 11.5833 14.6469 11.6483 14.9582 11.9596L17.9882 14.989L19.2357 16.2371C19.4294 16.4302 19.5357 16.6871 19.5357 16.9602C19.5357 17.2333 19.4294 17.4896 19.2357 17.6833ZM11.2288 3.03209C10.1188 1.92209 8.66068 1.36709 7.20256 1.36709C5.74381 1.36709 4.28631 1.92209 3.17568 3.03209C0.955683 5.25209 0.955683 8.86521 3.17568 11.0852C4.25131 12.1608 5.68131 12.7533 7.20256 12.7533C8.72381 12.7533 10.1538 12.1608 11.2288 11.0852C13.4494 8.86521 13.4494 5.25209 11.2288 3.03209ZM12.1694 11.3958C12.0719 11.5065 11.9719 11.6165 11.8663 11.7227C11.7607 11.8283 11.6507 11.9283 11.5394 12.0258L12.4926 12.979L13.1226 12.349L12.1694 11.3958ZM18.5988 16.874L17.3513 15.6265L14.3213 12.5965C14.2738 12.549 14.1969 12.549 14.1494 12.5965L12.7401 14.0058C12.7107 14.0352 12.7044 14.0683 12.7044 14.0915C12.7044 14.1146 12.7107 14.1483 12.7401 14.1771L15.7701 17.2077L17.0182 18.4552C17.0657 18.5021 17.1426 18.5027 17.1901 18.4552L18.5988 17.0458C18.6463 16.9983 18.6463 16.9215 18.5988 16.874ZM9.83381 4.28459C9.13131 3.58146 8.19631 3.19396 7.20256 3.19396C6.20881 3.19396 5.27381 3.58146 4.57131 4.28459C4.48318 4.37271 4.36818 4.41646 4.25256 4.41646C4.13756 4.41646 4.02256 4.37271 3.93443 4.28459C3.75818 4.10834 3.75818 3.82334 3.93443 3.64709C4.80756 2.77459 5.96818 2.29334 7.20256 2.29334C8.43693 2.29334 9.59818 2.77396 10.4707 3.64709C10.6469 3.82334 10.6469 4.10834 10.4707 4.28459C10.2951 4.46021 10.0101 4.46021 9.83381 4.28459Z" fill="#01859A"/>
</g>
<defs>
<clipPath id="clip0_0_526">
<rect width="20" height="20" fill="white"/>
</clipPath>
</defs>
</svg>
