<svg width="25" height="20" viewBox="0 0 25 20" fill="none" xmlns="http://www.w3.org/2000/svg">
<g clip-path="url(#clip0_0_541)">
<path fill-rule="evenodd" clip-rule="evenodd" d="M17.2694 18.6019C17.6565 18.8564 18.037 19.1173 18.4546 19.321C18.9648 19.571 19.4843 19.7891 20.062 19.8355C20.5315 19.8728 20.9241 19.731 21.2185 19.3646C21.4213 19.1119 21.5565 18.8264 21.6176 18.5119C21.688 18.1491 21.7435 17.7846 21.8028 17.42C21.9639 16.4337 22.1231 15.4455 22.2833 14.4591C22.5333 12.9219 22.7852 11.3855 23.0333 9.84914C23.2074 8.76914 23.3787 7.68823 23.5481 6.60732C23.738 5.40096 23.9278 4.1955 24.1074 2.98732C24.1722 2.55005 24.2509 2.11277 24.2481 1.66823C24.2481 1.58005 24.25 1.49368 24.2472 1.40641C24.2278 0.839138 23.8472 0.470047 23.2713 0.448229C22.8537 0.431865 22.4574 0.520047 22.0731 0.674592C21.7824 0.792774 21.4944 0.914592 21.2028 1.03187C19.488 1.72005 17.7796 2.42186 16.0713 3.12641C14.4704 3.78641 12.8611 4.42641 11.2555 5.07641C9.34722 5.84823 7.43888 6.62368 5.53055 7.3955C4.27314 7.90459 3.01481 8.41187 1.75555 8.91823C1.42592 9.05096 1.10648 9.20368 0.814809 9.40641C0.697216 9.48914 0.590734 9.58277 0.505549 9.69732C0.312957 9.95368 0.315734 10.2446 0.506475 10.4991C0.628697 10.6628 0.792586 10.7582 0.987957 10.8228C2.18148 11.2128 3.37592 11.5973 4.57962 11.9582C5.22499 12.1519 5.87499 12.2755 6.55648 12.2137C6.98703 12.1755 7.38425 12.0682 7.74722 11.8264C9.02036 10.9791 10.2972 10.1364 11.5731 9.29368C13.2417 8.19277 14.9083 7.08914 16.5796 5.99368C16.9833 5.73005 17.3981 5.48005 17.8667 5.33459C17.9722 5.30096 18.0768 5.27368 18.1889 5.28459C18.3454 5.30005 18.4213 5.38459 18.4157 5.53823C18.412 5.64005 18.3731 5.73459 18.3296 5.8255C18.1861 6.12641 18 6.39823 17.7593 6.63187C17.1852 7.18823 16.6093 7.74277 16.0296 8.29368C15.5139 8.78277 14.987 9.26005 14.4722 9.75096C13.7509 10.4382 13.013 11.1073 12.2768 11.7782C11.9667 12.061 11.6555 12.3428 11.3407 12.6219C11.1778 12.7673 11.0343 12.9291 10.9278 13.1182C10.7602 13.4128 10.737 13.7164 10.8907 14.0246C10.9639 14.171 11.0546 14.3028 11.1722 14.4182C11.4241 14.6655 11.7148 14.8682 11.9981 15.0782C12.85 15.7091 13.7305 16.3 14.6157 16.8828C15.4963 17.4628 16.3898 18.0228 17.2694 18.6019Z" fill="#A6A5A5"/>
</g>
<defs>
<clipPath id="clip0_0_541">
<rect width="25" height="20" fill="white"/>
</clipPath>
</defs>
</svg>
