<svg width="26" height="16" viewBox="0 0 26 16" fill="none" xmlns="http://www.w3.org/2000/svg">
<g clip-path="url(#clip0_0_537)">
<path fill-rule="evenodd" clip-rule="evenodd" d="M14.846 4.37732C14.846 5.30909 14.8469 6.24085 14.846 7.17168C14.846 7.34768 14.8646 7.52179 14.9379 7.68273C15.0401 7.90768 15.1961 7.98203 15.4338 7.93026C15.6483 7.8832 15.8191 7.75615 15.9844 7.61968C16.5007 7.19615 16.9149 6.6785 17.303 6.13826C18.3579 4.67285 19.1954 3.08321 19.9039 1.42203C20.1231 0.91097 20.4973 0.639911 21.0433 0.635206C22.0025 0.627676 22.9608 0.633323 23.92 0.634264C24.076 0.634264 24.2283 0.658735 24.3741 0.718029C24.6016 0.809323 24.726 0.977794 24.739 1.22909C24.752 1.48509 24.6768 1.72509 24.5941 1.96132C24.3369 2.69168 23.9599 3.35991 23.5764 4.02532C22.7834 5.3985 21.9096 6.71897 21.0136 8.02344C20.9486 8.1185 20.8938 8.22109 20.8371 8.32273C20.6839 8.59191 20.7062 8.85262 20.8724 9.10768C21.0061 9.31379 21.1612 9.50391 21.3367 9.67426C22.2588 10.5721 23.1307 11.5171 23.9311 12.527C24.3815 13.0973 24.8272 13.6705 25.1216 14.3463C25.1754 14.4705 25.2163 14.5976 25.2386 14.7312C25.3296 15.278 25.0779 15.6281 24.5356 15.7053C24.4084 15.7232 24.2812 15.7336 24.1531 15.7336C23.3536 15.7317 22.5522 15.71 21.7536 15.7392C21.1157 15.7637 20.6106 15.5369 20.1899 15.07C19.7693 14.6051 19.3486 14.1392 18.9252 13.6761C18.2938 12.9853 17.6271 12.3331 16.8721 11.7787C16.6066 11.5839 16.3289 11.4117 16.0188 11.295C15.7811 11.2046 15.5387 11.1773 15.2899 11.2225C15.0874 11.2573 14.9546 11.374 14.8999 11.5764C14.8562 11.7373 14.846 11.903 14.846 12.0686C14.8469 12.8752 14.846 13.6809 14.846 14.4874C14.846 14.5449 14.8469 14.6041 14.846 14.6625C14.833 15.2451 14.6194 15.5133 14.053 15.6281C13.4383 15.7533 12.8152 15.7571 12.1931 15.695C10.2069 15.4964 8.50571 14.6343 6.98007 13.3759C5.92243 12.5034 5.05607 11.4578 4.28535 10.3237C3.39671 9.01544 2.57214 7.67144 1.86921 6.25121C1.19321 4.88838 0.598925 3.49262 0.259068 1.99803C0.222853 1.84085 0.196853 1.68179 0.185711 1.52085C0.149496 0.969323 0.387211 0.688853 0.930425 0.640853C1.014 0.633323 1.0985 0.632382 1.18207 0.632382C2.06142 0.632382 2.94078 0.632382 3.82014 0.632382C3.93435 0.632382 4.04857 0.637088 4.16278 0.65497C4.46364 0.700147 4.68371 0.861088 4.8425 1.11897C4.96507 1.3185 5.04307 1.53873 5.11828 1.75803C5.60671 3.18297 6.20378 4.55803 6.92343 5.87756C7.36264 6.68226 7.83807 7.4625 8.41471 8.17497C8.64221 8.45638 8.88178 8.7265 9.17707 8.93732C9.321 9.04085 9.4705 9.13497 9.66085 9.12838C9.86235 9.12085 9.98214 9.03897 10.0471 8.84226C10.1121 8.64556 10.127 8.4385 10.127 8.23238C10.1289 6.8225 10.1372 5.41073 10.1242 4.00085C10.1177 3.24321 9.88835 2.55615 9.3925 1.9745C9.30614 1.87285 9.22628 1.76462 9.15571 1.65073C8.88271 1.21309 9.139 0.689794 9.64971 0.638029C9.71935 0.631441 9.79085 0.632382 9.86142 0.632382C11.2264 0.632382 12.5924 0.632382 13.9574 0.632382C14.5841 0.632382 14.8293 0.860147 14.8376 1.50203C14.8506 2.46109 14.8414 3.41921 14.8414 4.37732C14.8432 4.37732 14.846 4.37732 14.846 4.37732Z" fill="#A6A5A5"/>
</g>
<defs>
<clipPath id="clip0_0_537">
<rect width="26" height="16" fill="white"/>
</clipPath>
</defs>
</svg>
