<svg width="58" height="48" viewBox="0 0 58 48" fill="none" xmlns="http://www.w3.org/2000/svg">
<path fill-rule="evenodd" clip-rule="evenodd" d="M54.8127 31.7529H53.4515V46.5215C53.4515 46.9106 53.137 47.2252 52.7487 47.2252C52.3604 47.2252 52.045 46.9106 52.045 46.5215V31.7529H46.7247C46.2627 31.7529 45.8316 31.6226 45.4613 31.3998V33.0712C45.4613 33.4604 45.1467 33.7741 44.7584 33.7741H39.5856C39.8324 34.2369 39.9584 34.7092 39.9601 35.1858C39.9644 36.5409 38.8124 37.6586 37.3373 37.7324L37.2241 37.7332C35.7173 37.6886 34.555 36.5889 34.5498 35.2278C34.5481 34.7401 34.6767 34.2532 34.9338 33.7741H29.8038C29.7541 33.7741 29.7061 33.7689 29.659 33.7586H23.4781C23.2887 33.7586 23.107 33.6832 22.975 33.5478C22.8421 33.4115 22.7701 33.2281 22.7753 33.0386L22.7795 32.8629C22.7838 32.6949 22.849 32.5329 22.9621 32.4078C23.245 32.0966 23.5827 31.6201 23.581 31.1178C23.5793 30.5461 22.9827 30.0566 22.2515 30.0258L22.1924 30.0266C22.1907 30.0266 22.189 30.0266 22.1873 30.0266C21.811 30.0266 21.4544 30.1689 21.2067 30.4158C21.0104 30.6129 20.9024 30.8572 20.9033 31.1032C20.905 31.6089 21.2461 32.0872 21.5324 32.4018C21.6447 32.5244 21.7098 32.6829 21.7158 32.8501L21.7227 33.0309C21.7295 33.2221 21.6584 33.4072 21.5255 33.5444C21.3935 33.6815 21.211 33.7586 21.0198 33.7586H14.7498C14.3615 33.7586 14.047 33.4449 14.047 33.0566V27.8838C13.7384 28.0484 13.4255 28.1538 13.1101 28.2095C13.2704 28.5369 13.363 28.9038 13.363 29.2904C13.363 30.6481 12.259 31.7529 10.9021 31.7529H5.58184V46.5215C5.58184 46.9106 5.26641 47.2252 4.87812 47.2252C4.48984 47.2252 4.17526 46.9106 4.17526 46.5215V31.7529H2.81412C1.26269 31.7529 0.00012207 30.4912 0.00012207 28.9398V21.2032C0.00012207 16.9372 3.47069 13.4666 7.73669 13.4666H29.4944C29.5021 13.4666 29.509 13.4692 29.5167 13.4692C29.5244 13.4692 29.5313 13.4666 29.5398 13.4666H37.1393C37.207 13.4615 37.2747 13.4564 37.3441 13.4555L37.4616 13.4589C37.4855 13.4606 37.5087 13.4649 37.5318 13.4666H49.8901C54.1561 13.4666 57.6267 16.9372 57.6267 21.2032V28.9398C57.6267 30.4912 56.3641 31.7529 54.8127 31.7529ZM28.7907 14.8741H7.73669C4.24641 14.8741 1.40669 17.7129 1.40669 21.2032V28.9398C1.40669 29.7146 2.03755 30.3455 2.81412 30.3455H10.9021C11.4833 30.3455 11.9564 29.8724 11.9564 29.2904C11.9564 28.7092 11.4833 28.2361 10.9021 28.2361H4.92355C4.53526 28.2361 4.22069 27.9215 4.22069 27.5324V21.9069C4.22069 21.5178 4.53526 21.2032 4.92355 21.2032C5.31184 21.2032 5.62726 21.5178 5.62726 21.9069V26.8295H10.405C10.2241 26.4729 10.1101 26.0684 10.0896 25.6355L10.0878 25.5189C10.1315 24.0155 11.2321 22.8524 12.5933 22.8481C13.0673 22.8155 13.5678 22.9741 14.047 23.2312V18.1021C14.047 17.9152 14.1215 17.7352 14.2535 17.6041C14.3855 17.4721 14.5441 17.3804 14.7524 17.3992L20.9761 17.4164C21.1655 17.4164 21.3464 17.4935 21.4793 17.6298C21.6104 17.7661 21.6824 17.9504 21.6764 18.1398L21.6687 18.4029C21.6644 18.5701 21.6001 18.7304 21.4878 18.8546C21.2058 19.1666 20.8698 19.6449 20.8724 20.1481C20.8758 20.7198 21.4733 21.2066 22.2053 21.2349L22.2593 21.2341C22.9647 21.2075 23.5527 20.7232 23.5501 20.1549C23.5467 19.6501 23.2047 19.1718 22.9175 18.8589C22.8044 18.7355 22.7384 18.5752 22.7324 18.4081L22.723 18.1509C22.7161 17.9606 22.7873 17.7764 22.9193 17.6392C23.0513 17.5012 23.233 17.4232 23.4233 17.4232L28.7907 17.4018V14.8741ZM30.0695 25.0621H29.7027C29.3153 25.0612 29.0007 24.7458 29.0007 24.3584V18.8075L24.6078 18.8246C24.835 19.2609 24.9541 19.7075 24.9567 20.1472C24.9635 21.4895 23.7927 22.5849 22.291 22.6398L22.1838 22.6406C20.653 22.5841 19.4735 21.4929 19.4658 20.1558C19.4633 19.7049 19.5764 19.2584 19.8027 18.8195L15.4535 18.8075V24.3421C15.4535 24.5306 15.3781 24.7115 15.2435 24.8444C15.109 24.9755 14.9204 25.0552 14.7387 25.0458L14.3967 25.0406C14.2321 25.0372 14.0727 24.9764 13.9484 24.8692C13.6235 24.5881 13.1264 24.2546 12.6027 24.2546C12.6027 24.2546 12.6001 24.2546 12.5984 24.2546C12.0001 24.2564 11.515 24.8195 11.4944 25.5378L11.4953 25.5978C11.5296 26.2878 12.0267 26.8518 12.6276 26.8518H12.6301C13.1538 26.8492 13.645 26.5124 13.9638 26.2304C14.0881 26.1198 14.2476 26.0581 14.4138 26.0538L14.7335 26.0469C14.9178 26.0384 15.1055 26.1138 15.241 26.2466C15.3773 26.3795 15.4535 26.5604 15.4535 26.7489V32.3529H19.8027C19.6013 31.9406 19.4975 31.5215 19.4967 31.1075C19.495 30.4835 19.7487 29.8852 20.2124 29.4215C20.7215 28.9124 21.4407 28.6209 22.1855 28.6209C22.189 28.6209 22.1915 28.6209 22.1941 28.6209H22.2807C23.8064 28.6826 24.9841 29.7764 24.9875 31.1126C24.9884 31.5309 24.8907 31.9449 24.6953 32.3529H29.0007V26.7686C29.0007 26.5784 29.0778 26.3949 29.215 26.2629C29.3521 26.1301 29.5304 26.0461 29.7275 26.0658L30.0224 26.0752C30.1921 26.0804 30.355 26.1481 30.4793 26.2638C30.793 26.5569 31.2773 26.9092 31.8027 26.9272C32.4284 26.9315 32.9084 26.4026 32.9581 25.6861L32.959 25.6415C32.9453 24.9266 32.4713 24.3532 31.8738 24.3318C31.3518 24.2966 30.847 24.6326 30.5161 24.9035C30.3901 25.0055 30.2333 25.0621 30.0713 25.0621H30.0695ZM34.9055 14.8741H30.2427V17.4138H34.9947C34.7341 16.9115 34.6115 16.4049 34.6278 15.8984C34.6407 15.5306 34.741 15.1844 34.9055 14.8741ZM37.4547 14.8741H37.2044C36.5701 14.9324 36.0541 15.3824 36.0344 15.9472C36.0164 16.4692 36.3353 16.9741 36.6053 17.3058C36.7081 17.4309 36.7647 17.5895 36.7638 17.7515V18.1184C36.763 18.5058 36.4484 18.8204 36.0601 18.8204H30.4073V23.2929C30.9087 23.0324 31.411 22.9089 31.9218 22.9261C33.2778 22.9732 34.3501 24.1664 34.3664 25.6415C34.3664 25.6544 34.3664 25.6655 34.3656 25.6775L34.3621 25.7632C34.261 27.2589 33.1261 28.4144 31.7547 28.3329C31.3047 28.3175 30.8496 28.1846 30.4073 27.9429V32.3684H36.0447C36.2324 32.3684 36.4133 32.4429 36.5453 32.5784C36.6781 32.7121 36.751 32.8938 36.7476 33.0824L36.7424 33.4244C36.739 33.5889 36.679 33.7475 36.571 33.8726C36.2898 34.1992 35.9538 34.6989 35.9564 35.2226C35.9581 35.8209 36.5221 36.3052 37.2395 36.3266H37.297C37.9913 36.2915 38.5553 35.7918 38.5535 35.1909C38.5518 34.6672 38.215 34.1761 37.9321 33.8572C37.8224 33.7329 37.7607 33.5744 37.7564 33.4089L37.7487 33.0884C37.7435 32.8981 37.8156 32.7155 37.9484 32.5801C38.0804 32.4438 38.2621 32.3684 38.4515 32.3684H44.0547V28.0218C43.6415 28.2241 43.2164 28.3509 42.8007 28.3252C42.181 28.3252 41.5853 28.0715 41.1241 27.6095C40.6124 27.0978 40.3201 26.3752 40.3227 25.6269V25.5404C40.3835 24.0146 41.4781 22.8378 42.8153 22.8335C42.8178 22.8335 42.8213 22.8335 42.8238 22.8335C43.2387 22.8335 43.6501 22.9312 44.0547 23.1258V18.8204H38.4704C38.2793 18.8204 38.0975 18.7432 37.9647 18.6061C37.8327 18.4689 37.7607 18.2846 37.7675 18.0944L37.777 17.7995C37.7821 17.6289 37.8498 17.4669 37.9655 17.3426C38.2587 17.0281 38.6118 16.5446 38.629 16.0201C38.6487 15.4389 38.137 14.9486 37.4547 14.8741ZM56.2201 21.2032C56.2201 17.7129 53.3804 14.8741 49.8901 14.8741H39.757C39.949 15.2324 40.0493 15.6386 40.0347 16.0672C40.0201 16.5172 39.8881 16.9715 39.6455 17.4138H44.7584C45.1467 17.4138 45.4613 17.7284 45.4613 18.1175V24.3429C45.4613 24.5332 45.385 24.7149 45.2487 24.8469C45.1133 24.9789 44.9315 25.0586 44.7404 25.0466L44.5655 25.0415C44.3967 25.0372 44.2347 24.9721 44.1104 24.8589C43.7993 24.5769 43.3244 24.2401 42.8238 24.2401C42.8221 24.2401 42.8195 24.2401 42.8195 24.2401C42.2478 24.2426 41.7584 24.8384 41.7284 25.5695L41.7293 25.6286C41.7284 26.0075 41.8698 26.3666 42.1184 26.6152C42.3138 26.8098 42.5564 26.9178 42.8015 26.9178C42.8015 26.9178 42.8033 26.9178 42.805 26.9178C43.309 26.9169 43.789 26.5749 44.1035 26.2886C44.227 26.1764 44.3864 26.1112 44.5535 26.1052L44.7344 26.0992C44.9247 26.0838 45.1098 26.1635 45.247 26.2964C45.3833 26.4292 45.4613 26.6109 45.4613 26.8021V27.1826C45.8316 26.9598 46.2627 26.8295 46.7247 26.8295H51.9995V21.9069C51.9995 21.5178 52.315 21.2032 52.7033 21.2032C53.0915 21.2032 53.4061 21.5178 53.4061 21.9069V27.5324C53.4061 27.9215 53.0915 28.2361 52.7033 28.2361H46.7247C46.1435 28.2361 45.6704 28.7092 45.6704 29.2904C45.6704 29.8724 46.1435 30.3455 46.7247 30.3455H54.8127C55.5884 30.3455 56.2201 29.7146 56.2201 28.9398V21.2032ZM46.4187 12.0601C43.4744 12.0601 41.4953 9.79893 41.4953 6.43378C41.4953 3.06864 43.4744 0.806641 46.4187 0.806641C49.3638 0.806641 51.3421 3.06864 51.3421 6.43378C51.3421 9.79893 49.3638 12.0601 46.4187 12.0601ZM46.4187 2.21407C43.8233 2.21407 42.9018 4.48721 42.9018 6.43378C42.9018 8.38035 43.8233 10.6535 46.4187 10.6535C49.0141 10.6535 49.9355 8.38035 49.9355 6.43378C49.9355 4.48721 49.0141 2.21407 46.4187 2.21407ZM11.2081 12.0601C8.26298 12.0601 6.28469 9.79893 6.28469 6.43378C6.28469 3.06864 8.26298 0.806641 11.2081 0.806641C14.1524 0.806641 16.1315 3.06864 16.1315 6.43378C16.1315 9.79893 14.1524 12.0601 11.2081 12.0601ZM11.2081 2.21407C8.61269 2.21407 7.69126 4.48721 7.69126 6.43378C7.69126 8.38035 8.61269 10.6535 11.2081 10.6535C13.8035 10.6535 14.7241 8.38035 14.7241 6.43378C14.7241 4.48721 13.8035 2.21407 11.2081 2.21407ZM11.2081 34.5661C11.5964 34.5661 11.911 34.8798 11.911 35.2689V46.5215C11.911 46.9106 11.5964 47.2252 11.2081 47.2252C10.8198 47.2252 10.5044 46.9106 10.5044 46.5215V35.2689C10.5044 34.8798 10.8198 34.5661 11.2081 34.5661ZM17.5381 34.3895C17.9264 34.3895 18.241 34.7041 18.241 35.0924V46.5215C18.241 46.9106 17.9264 47.2252 17.5381 47.2252C17.149 47.2252 16.8344 46.9106 16.8344 46.5215V35.0924C16.8344 34.7041 17.149 34.3895 17.5381 34.3895ZM40.0887 37.9398C40.477 37.9398 40.7924 38.2552 40.7924 38.6444V46.5215C40.7924 46.9106 40.477 47.2252 40.0887 47.2252C39.7004 47.2252 39.3858 46.9106 39.3858 46.5215V38.6444C39.3858 38.2552 39.7004 37.9398 40.0887 37.9398ZM46.4187 34.5661C46.807 34.5661 47.1224 34.8798 47.1224 35.2689V46.5215C47.1224 46.9106 46.807 47.2252 46.4187 47.2252C46.0304 47.2252 45.715 46.9106 45.715 46.5215V35.2689C45.715 34.8798 46.0304 34.5661 46.4187 34.5661Z" fill="#01859A"/>
</svg>
